<?xml version="1.0" standalone="no"?>
<!DOCTYPE svg PUBLIC "-//W3C//DTD SVG 20010904//EN"
 "http://www.w3.org/TR/2001/REC-SVG-20010904/DTD/svg10.dtd">
<svg version="1.0" xmlns="http://www.w3.org/2000/svg"
 width="361.000000pt" height="361.000000pt" viewBox="0 0 361.000000 361.000000"
 preserveAspectRatio="xMidYMid meet">
<metadata>
Created by potrace 1.11, written by Peter Selinger 2001-2013
</metadata>
<g transform="translate(0.000000,361.000000) scale(0.100000,-0.100000)"
fill="#000000" stroke="none">
<path d="M1286 2628 l-67 -52 3 -463 c2 -255 0 -462 -4 -461 -4 2 -149 228
-323 503 -174 275 -320 503 -324 508 -4 4 -38 -15 -75 -43 l-67 -51 2 -557 c2
-306 5 -596 8 -644 l6 -87 67 55 67 54 -6 468 c-4 410 -3 465 9 447 8 -11 153
-238 323 -505 169 -267 313 -491 320 -498 9 -10 24 -3 76 39 l64 51 -4 641
c-2 353 -4 643 -5 644 -1 2 -33 -21 -70 -49z"/>
<path d="M1492 2636 c-29 -23 -57 -47 -63 -53 -7 -7 54 -104 200 -317 l211
-308 0 -334 c0 -184 2 -334 5 -334 3 0 35 23 70 52 l65 52 0 341 0 341 152
229 c83 127 174 264 201 305 51 75 51 75 16 49 -19 -14 -47 -34 -62 -45 -15
-10 -98 -121 -183 -246 -85 -126 -158 -228 -162 -228 -4 1 -90 122 -191 270
-100 149 -188 270 -195 269 -6 0 -35 -19 -64 -43z"/>
<path d="M2464 2613 l-67 -58 6 -385 c4 -212 7 -491 7 -620 l0 -235 297 3 297
3 74 56 c40 31 75 59 77 62 2 3 -134 5 -301 3 l-304 -4 0 226 0 226 186 0 187
0 75 58 75 57 -262 3 c-199 2 -261 5 -261 15 0 6 -3 126 -7 265 l-6 252 227 0
228 0 79 61 c43 34 79 63 79 65 0 2 -139 4 -309 4 l-309 0 -68 -57z"/>
<path d="M2039 1132 c-42 -37 -33 -65 29 -95 43 -20 47 -25 47 -59 0 -27 3
-34 12 -26 39 32 21 79 -43 110 -38 18 -45 25 -42 47 3 24 6 26 46 23 41 -2
57 10 26 22 -28 11 -43 6 -75 -22z"/>
<path d="M2185 1151 c-3 -5 7 -11 22 -13 32 -3 30 2 32 -118 0 -52 5 -90 11
-90 6 0 10 42 10 105 l0 105 30 0 c17 0 30 5 30 10 0 13 -127 13 -135 1z"/>
<path d="M2383 1154 c-16 -7 -19 -224 -3 -224 6 0 10 20 10 45 0 33 4 45 15
45 8 0 28 -20 45 -45 17 -25 34 -45 39 -45 20 0 18 16 -9 55 -20 28 -26 45
-19 52 7 7 -2 10 -28 9 l-38 -1 -3 48 c-3 43 -1 47 20 47 39 0 68 -27 68 -63
1 -30 1 -31 15 -13 34 45 8 86 -56 92 -24 2 -50 1 -56 -2z"/>
<path d="M2573 1153 c-9 -3 -13 -36 -13 -114 l0 -109 54 0 c30 0 58 5 61 10 4
6 -13 10 -44 10 l-51 0 0 35 c0 33 2 35 34 35 18 0 39 7 46 15 11 13 6 15 -34
15 l-46 0 0 45 0 45 44 0 c25 0 48 5 51 10 6 10 -78 13 -102 3z"/>
<path d="M2795 1151 c-20 -33 -91 -221 -83 -221 5 0 14 14 19 30 9 26 16 30
46 30 19 0 42 4 52 10 15 8 21 3 36 -30 18 -39 29 -48 39 -32 6 10 -83 222
-94 222 -5 0 -11 -4 -15 -9z m29 -84 c9 -23 16 -46 16 -50 0 -4 -18 -7 -40 -7
-22 0 -40 3 -40 7 0 16 33 93 40 93 4 0 15 -19 24 -43z"/>
<path d="M2957 1154 c-11 -12 -8 -224 3 -224 11 0 12 14 10 108 -1 34 2 62 7
62 4 0 21 -20 36 -45 16 -25 34 -45 41 -45 7 0 30 26 52 57 l39 57 5 -100 c7
-130 22 -100 18 37 l-3 104 -49 -68 -48 -68 -44 63 c-46 65 -55 73 -67 62z"/>
<path d="M469 1121 c-37 -38 -40 -99 -4 -85 10 4 10 12 2 34 -8 22 -8 32 2 44
18 21 33 20 65 -5 35 -28 33 -51 -10 -101 -30 -36 -28 -35 10 5 51 54 58 85
26 117 -28 28 -57 25 -91 -9z"/>
<path d="M685 1137 c-16 -13 -15 -14 12 -10 63 10 123 -81 94 -144 -17 -37 -5
-41 13 -4 31 58 14 131 -35 157 -35 18 -60 18 -84 1z"/>
<path d="M900 1140 c-12 -8 -11 -10 8 -10 28 0 62 -34 62 -62 0 -12 -15 -38
-32 -58 -20 -21 -15 -18 10 6 30 31 42 51 42 72 0 48 -50 78 -90 52z"/>
<path d="M1100 1140 c-11 -7 -8 -10 16 -10 67 0 109 -71 86 -146 -5 -19 -8
-34 -6 -34 12 0 34 65 34 100 0 71 -77 124 -130 90z"/>
<path d="M1378 1144 c-5 -4 -8 -56 -8 -116 l0 -108 49 0 c28 0 53 5 56 10 4 6
-11 10 -39 10 l-45 0 -3 106 c-2 58 -6 102 -10 98z"/>
<path d="M1525 1140 c-3 -5 -1 -10 4 -10 16 0 14 -183 -1 -198 -9 -9 -8 -12 8
-12 21 0 57 20 37 20 -18 0 -18 181 -1 198 9 9 6 12 -14 12 -15 0 -30 -4 -33
-10z"/>
<path d="M1607 1143 c-7 -12 85 -224 95 -221 5 2 27 46 49 98 48 117 54 134
42 127 -6 -4 -25 -45 -43 -92 -18 -47 -36 -85 -40 -85 -4 0 -24 41 -45 90 -35
84 -48 101 -58 83z"/>
<path d="M1857 1143 c-4 -3 -7 -55 -7 -115 l0 -108 48 0 c26 0 54 5 62 10 11
7 0 10 -37 10 l-53 0 0 40 c0 38 1 40 33 40 17 0 39 5 47 10 11 7 2 10 -32 10
l-48 0 0 45 0 45 38 0 c20 0 44 5 52 10 11 7 -1 10 -41 10 -31 0 -59 -3 -62
-7z"/>
<path d="M629 1088 c-26 -43 -21 -109 12 -144 17 -18 33 -24 65 -24 51 0 67
15 18 16 -67 1 -109 78 -80 147 19 46 12 48 -15 5z"/>
<path d="M860 1099 c-15 -28 -5 -70 15 -63 11 5 12 10 4 26 -6 11 -9 29 -6 39
7 25 0 24 -13 -2z"/>
<path d="M1046 1098 c-35 -55 -27 -132 17 -163 24 -17 93 -20 102 -5 4 6 -7
10 -27 10 -37 1 -59 14 -76 47 -15 27 -15 88 -2 114 15 26 4 24 -14 -3z"/>
<path d="M2013 963 c-21 -7 -15 -20 15 -32 19 -8 36 -9 53 -2 21 9 22 10 4 10
-11 1 -29 7 -40 15 -11 7 -26 11 -32 9z"/>
<path d="M448 923 c-8 -10 1 -13 43 -13 78 0 97 17 25 21 -38 3 -61 0 -68 -8z"/>
<path d="M864 928 c-3 -5 22 -8 55 -8 34 0 61 4 61 9 0 11 -110 9 -116 -1z"/>
</g>
</svg>
